<svg xmlns="http://www.w3.org/2000/svg" xmlns:xlink="http://www.w3.org/1999/xlink" width="75" zoomAndPan="magnify" viewBox="0 0 56.25 56.249997" height="75" preserveAspectRatio="xMidYMid meet" version="1.0"><defs><clipPath id="a809c5591a"><path d="M 15.222656 15.660156 L 39.804688 15.660156 L 39.804688 40.242188 L 15.222656 40.242188 Z M 15.222656 15.660156 " clip-rule="nonzero"/></clipPath><clipPath id="5ee8794725"><path d="M 27.511719 15.660156 C 20.722656 15.660156 15.222656 21.164062 15.222656 27.953125 C 15.222656 34.742188 20.722656 40.242188 27.511719 40.242188 C 34.300781 40.242188 39.804688 34.742188 39.804688 27.953125 C 39.804688 21.164062 34.300781 15.660156 27.511719 15.660156 Z M 27.511719 15.660156 " clip-rule="nonzero"/></clipPath><clipPath id="a79175a6ce"><path d="M 0 0 L 54.769531 0 L 54.769531 54.769531 L 0 54.769531 Z M 0 0 " clip-rule="nonzero"/></clipPath></defs><g clip-path="url(#a809c5591a)"><g clip-path="url(#5ee8794725)"><path fill="#e6faff" d="M 15.222656 15.660156 L 39.804688 15.660156 L 39.804688 40.242188 L 15.222656 40.242188 Z M 15.222656 15.660156 " fill-opacity="1" fill-rule="nonzero"/></g></g><g clip-path="url(#a79175a6ce)"><path fill="#e6faff" d="M 6.554688 36.1875 C 6.214844 35.996094 5.886719 35.804688 5.574219 35.605469 C 2.015625 33.351562 0 30.511719 0 27.507812 C 0 24.503906 2.015625 21.664062 5.574219 19.414062 C 5.886719 19.214844 6.214844 19.019531 6.554688 18.828125 C 6.449219 18.453125 6.355469 18.085938 6.273438 17.722656 C 5.351562 13.613281 5.929688 10.179688 8.054688 8.054688 C 10.179688 5.929688 13.613281 5.351562 17.722656 6.273438 C 18.085938 6.355469 18.453125 6.449219 18.828125 6.554688 C 19.019531 6.214844 19.214844 5.886719 19.414062 5.574219 C 21.664062 2.015625 24.503906 0 27.507812 0 C 30.511719 0 33.351562 2.015625 35.605469 5.574219 C 35.804688 5.886719 35.996094 6.214844 36.1875 6.554688 C 36.5625 6.449219 36.929688 6.355469 37.292969 6.273438 C 41.402344 5.351562 44.835938 5.933594 46.960938 8.054688 C 49.085938 10.179688 49.664062 13.613281 48.742188 17.722656 C 48.660156 18.085938 48.566406 18.453125 48.460938 18.828125 C 48.800781 19.019531 49.128906 19.214844 49.441406 19.414062 C 53 21.664062 55.015625 24.503906 55.015625 27.507812 C 55.015625 30.511719 53 33.351562 49.441406 35.605469 C 49.128906 35.804688 48.800781 35.996094 48.460938 36.1875 C 48.566406 36.5625 48.660156 36.929688 48.742188 37.292969 C 49.664062 41.402344 49.085938 44.835938 46.960938 46.960938 C 44.835938 49.085938 41.402344 49.664062 37.292969 48.742188 C 36.929688 48.660156 36.5625 48.566406 36.1875 48.460938 C 35.996094 48.800781 35.804688 49.128906 35.605469 49.441406 C 33.351562 53 30.511719 55.015625 27.507812 55.015625 C 24.503906 55.015625 21.664062 53 19.414062 49.441406 C 19.214844 49.128906 19.019531 48.800781 18.828125 48.460938 C 18.453125 48.566406 18.085938 48.660156 17.722656 48.742188 C 13.613281 49.664062 10.179688 49.085938 8.054688 46.960938 C 5.929688 44.835938 5.351562 41.402344 6.273438 37.292969 C 6.355469 36.929688 6.449219 36.5625 6.554688 36.1875 Z M 7.164062 20.71875 C 6.976562 20.828125 6.792969 20.941406 6.613281 21.054688 C 3.730469 22.878906 1.941406 25.074219 1.941406 27.507812 C 1.941406 29.945312 3.730469 32.136719 6.613281 33.960938 C 6.792969 34.074219 6.976562 34.1875 7.164062 34.300781 C 7.957031 32.132812 9.097656 29.839844 10.554688 27.507812 C 9.097656 25.179688 7.957031 22.882812 7.164062 20.71875 Z M 17.925781 8.320312 C 17.714844 8.265625 17.503906 8.214844 17.296875 8.167969 C 13.964844 7.421875 11.152344 7.707031 9.429688 9.429688 C 7.707031 11.152344 7.421875 13.964844 8.167969 17.296875 C 8.214844 17.503906 8.265625 17.714844 8.320312 17.925781 C 10.414062 16.953125 12.84375 16.136719 15.519531 15.519531 C 16.136719 12.84375 16.953125 10.414062 17.925781 8.320312 Z M 34.300781 7.164062 C 34.1875 6.976562 34.074219 6.792969 33.960938 6.613281 C 32.136719 3.730469 29.945312 1.941406 27.507812 1.941406 C 25.074219 1.941406 22.878906 3.730469 21.054688 6.613281 C 20.941406 6.792969 20.828125 6.976562 20.71875 7.164062 C 22.882812 7.957031 25.179688 9.097656 27.507812 10.554688 C 29.839844 9.097656 32.132812 7.957031 34.300781 7.164062 Z M 46.695312 17.925781 C 46.75 17.714844 46.800781 17.503906 46.847656 17.296875 C 47.59375 13.964844 47.308594 11.152344 45.585938 9.429688 C 43.863281 7.707031 41.050781 7.421875 37.71875 8.167969 C 37.511719 8.214844 37.300781 8.265625 37.089844 8.320312 C 38.0625 10.414062 38.878906 12.84375 39.496094 15.519531 C 42.171875 16.136719 44.601562 16.953125 46.695312 17.925781 Z M 47.851562 34.300781 C 48.039062 34.1875 48.222656 34.074219 48.402344 33.960938 C 51.285156 32.136719 53.074219 29.945312 53.074219 27.507812 C 53.074219 25.074219 51.285156 22.878906 48.402344 21.054688 C 48.222656 20.941406 48.039062 20.828125 47.851562 20.71875 C 47.058594 22.882812 45.917969 25.179688 44.460938 27.507812 C 45.917969 29.839844 47.058594 32.132812 47.851562 34.300781 Z M 37.089844 46.695312 C 37.300781 46.75 37.511719 46.800781 37.71875 46.847656 C 41.050781 47.59375 43.863281 47.308594 45.585938 45.585938 C 47.308594 43.863281 47.59375 41.050781 46.847656 37.71875 C 46.800781 37.511719 46.75 37.300781 46.695312 37.089844 C 44.601562 38.0625 42.171875 38.878906 39.496094 39.496094 C 38.878906 42.171875 38.0625 44.601562 37.089844 46.695312 Z M 20.71875 47.851562 C 20.828125 48.039062 20.941406 48.222656 21.054688 48.402344 C 22.878906 51.285156 25.074219 53.074219 27.507812 53.074219 C 29.945312 53.074219 32.136719 51.285156 33.960938 48.402344 C 34.074219 48.222656 34.1875 48.039062 34.300781 47.851562 C 32.132812 47.058594 29.839844 45.917969 27.507812 44.460938 C 25.179688 45.917969 22.882812 47.058594 20.71875 47.851562 Z M 8.320312 37.089844 C 8.265625 37.300781 8.214844 37.511719 8.167969 37.71875 C 7.421875 41.050781 7.707031 43.863281 9.429688 45.585938 C 11.152344 47.308594 13.964844 47.59375 17.296875 46.847656 C 17.503906 46.800781 17.714844 46.75 17.925781 46.695312 C 16.953125 44.601562 16.136719 42.171875 15.519531 39.496094 C 12.84375 38.878906 10.414062 38.0625 8.320312 37.089844 Z M 15.085938 17.617188 C 12.789062 18.195312 10.703125 18.933594 8.898438 19.800781 C 9.5625 21.6875 10.515625 23.683594 11.730469 25.71875 C 12.5625 24.515625 13.476562 23.304688 14.46875 22.105469 C 14.613281 20.558594 14.824219 19.058594 15.085938 17.617188 Z M 11.730469 29.296875 C 10.515625 31.332031 9.5625 33.328125 8.898438 35.21875 C 10.703125 36.082031 12.789062 36.820312 15.085938 37.398438 C 14.824219 35.957031 14.613281 34.457031 14.46875 32.910156 C 13.476562 31.710938 12.5625 30.503906 11.730469 29.296875 Z M 25.71875 11.730469 C 23.683594 10.515625 21.6875 9.5625 19.800781 8.898438 C 18.933594 10.703125 18.195312 12.789062 17.617188 15.085938 C 19.058594 14.824219 20.558594 14.613281 22.105469 14.46875 C 23.304688 13.476562 24.515625 12.5625 25.71875 11.730469 Z M 37.398438 15.085938 C 36.820312 12.789062 36.082031 10.703125 35.21875 8.898438 C 33.328125 9.5625 31.332031 10.515625 29.296875 11.730469 C 30.503906 12.5625 31.710938 13.476562 32.910156 14.46875 C 34.457031 14.613281 35.957031 14.824219 37.398438 15.085938 Z M 43.285156 25.71875 C 44.5 23.683594 45.453125 21.6875 46.121094 19.800781 C 44.3125 18.933594 42.226562 18.195312 39.929688 17.617188 C 40.191406 19.058594 40.402344 20.558594 40.546875 22.105469 C 41.539062 23.304688 42.453125 24.515625 43.285156 25.71875 Z M 39.929688 37.398438 C 42.226562 36.820312 44.3125 36.082031 46.121094 35.21875 C 45.453125 33.328125 44.5 31.332031 43.285156 29.296875 C 42.453125 30.503906 41.539062 31.710938 40.546875 32.910156 C 40.402344 34.457031 40.191406 35.957031 39.929688 37.398438 Z M 29.296875 43.285156 C 31.332031 44.5 33.328125 45.453125 35.21875 46.121094 C 36.082031 44.3125 36.820312 42.226562 37.398438 39.929688 C 35.957031 40.191406 34.457031 40.402344 32.910156 40.546875 C 31.710938 41.539062 30.503906 42.453125 29.296875 43.285156 Z M 17.617188 39.929688 C 18.195312 42.226562 18.933594 44.3125 19.800781 46.121094 C 21.6875 45.453125 23.683594 44.5 25.71875 43.285156 C 24.515625 42.453125 23.304688 41.539062 22.105469 40.546875 C 20.558594 40.402344 19.058594 40.191406 17.617188 39.929688 Z M 14.25 25.53125 C 13.761719 26.191406 13.296875 26.851562 12.859375 27.507812 C 13.296875 28.167969 13.761719 28.828125 14.25 29.484375 C 14.226562 28.832031 14.214844 28.171875 14.214844 27.507812 C 14.214844 26.84375 14.226562 26.183594 14.25 25.53125 Z M 17.148438 17.148438 C 16.992188 17.925781 16.855469 18.71875 16.734375 19.53125 C 17.179688 19.054688 17.636719 18.578125 18.109375 18.109375 C 18.578125 17.636719 19.054688 17.179688 19.53125 16.734375 C 18.71875 16.855469 17.925781 16.992188 17.148438 17.148438 Z M 16.734375 35.484375 C 16.855469 36.296875 16.992188 37.09375 17.148438 37.867188 C 17.925781 38.023438 18.71875 38.160156 19.53125 38.28125 C 19.054688 37.835938 18.578125 37.378906 18.109375 36.90625 C 17.636719 36.4375 17.179688 35.964844 16.734375 35.484375 Z M 27.507812 12.859375 C 26.851562 13.296875 26.191406 13.761719 25.53125 14.25 C 26.183594 14.226562 26.84375 14.214844 27.507812 14.214844 C 28.171875 14.214844 28.832031 14.226562 29.484375 14.25 C 28.828125 13.761719 28.167969 13.296875 27.507812 12.859375 Z M 37.867188 17.148438 C 37.09375 16.992188 36.296875 16.855469 35.484375 16.734375 C 35.964844 17.179688 36.4375 17.636719 36.90625 18.109375 C 37.378906 18.578125 37.835938 19.054688 38.28125 19.53125 C 38.160156 18.71875 38.023438 17.925781 37.867188 17.148438 Z M 42.15625 27.507812 C 41.71875 26.851562 41.257812 26.191406 40.765625 25.53125 C 40.789062 26.183594 40.800781 26.84375 40.800781 27.507812 C 40.800781 28.171875 40.789062 28.832031 40.765625 29.484375 C 41.257812 28.828125 41.71875 28.167969 42.15625 27.507812 Z M 37.867188 37.867188 C 38.023438 37.09375 38.160156 36.296875 38.28125 35.484375 C 37.835938 35.964844 37.378906 36.4375 36.90625 36.90625 C 36.4375 37.378906 35.964844 37.835938 35.484375 38.28125 C 36.296875 38.160156 37.09375 38.023438 37.867188 37.867188 Z M 27.507812 42.15625 C 28.167969 41.71875 28.828125 41.257812 29.484375 40.765625 C 28.832031 40.789062 28.171875 40.800781 27.507812 40.800781 C 26.84375 40.800781 26.183594 40.789062 25.53125 40.765625 C 26.191406 41.257812 26.851562 41.71875 27.507812 42.15625 Z M 23.320312 29.464844 L 21.867188 33.023438 L 20.113281 32.308594 L 24.339844 21.9375 L 26.09375 21.9375 L 30.324219 32.308594 L 28.570312 33.023438 L 27.117188 29.464844 Z M 26.34375 27.566406 L 25.21875 24.804688 L 24.09375 27.566406 Z M 31.300781 21.785156 L 33.195312 21.785156 L 33.195312 32.835938 L 31.300781 32.835938 Z M 31.300781 21.785156 " fill-opacity="1" fill-rule="evenodd"/></g></svg>