<svg xmlns="http://www.w3.org/2000/svg" xmlns:xlink="http://www.w3.org/1999/xlink" width="50" zoomAndPan="magnify" viewBox="0 0 37.5 37.499999" height="50" preserveAspectRatio="xMidYMid meet" version="1.0"><path fill="#e6faff" d="M 18.328125 0 C 8.207031 0 0 8.207031 0 18.328125 C 0 28.453125 8.207031 36.660156 18.328125 36.660156 C 28.453125 36.660156 36.660156 28.453125 36.660156 18.328125 C 36.660156 8.207031 28.453125 0 18.328125 0 Z M 22.886719 9.3125 C 22.367188 9.234375 21.933594 9.195312 21.589844 9.195312 C 21.066406 9.195312 20.6875 9.289062 20.441406 9.484375 C 20.195312 9.671875 20.019531 9.964844 19.921875 10.359375 C 19.875 10.566406 19.851562 10.972656 19.851562 11.59375 L 19.851562 11.839844 L 22.308594 11.839844 L 22.308594 15.125 L 19.851562 15.125 L 19.851562 24.800781 L 15.175781 24.800781 L 15.175781 15.125 L 13.25 15.125 L 13.25 11.839844 L 15.175781 11.839844 L 15.175781 10.984375 C 15.175781 10.453125 15.234375 9.859375 15.347656 9.21875 C 15.457031 8.601562 15.664062 8.09375 15.964844 7.710938 C 16.265625 7.328125 16.691406 7.011719 17.238281 6.773438 C 17.792969 6.53125 18.628906 6.40625 19.71875 6.40625 C 20.5625 6.40625 21.789062 6.5 23.371094 6.6875 L 22.890625 9.3125 Z M 22.886719 9.3125 " fill-opacity="1" fill-rule="nonzero"/></svg>