<svg xmlns="http://www.w3.org/2000/svg" xmlns:xlink="http://www.w3.org/1999/xlink" width="57" zoomAndPan="magnify" viewBox="0 0 42.75 50.999998" height="68" preserveAspectRatio="xMidYMid meet" version="1.0"><defs><clipPath id="51fe429cfe"><path d="M 0 0.148438 L 17.894531 0.148438 L 17.894531 50.105469 L 0 50.105469 Z M 0 0.148438 " clip-rule="nonzero"/></clipPath><clipPath id="7cfafc9215"><path d="M 24.402344 0.148438 L 42.296875 0.148438 L 42.296875 50.105469 L 24.402344 50.105469 Z M 24.402344 0.148438 " clip-rule="nonzero"/></clipPath></defs><g clip-path="url(#51fe429cfe)"><path fill="#e6faff" d="M 8.980469 0.148438 C 6.992188 0.148438 5.386719 1.773438 5.386719 3.761719 C 5.386719 5.75 6.992188 7.355469 8.980469 7.355469 C 10.972656 7.355469 12.59375 5.75 12.59375 3.761719 C 12.59375 1.773438 10.972656 0.148438 8.980469 0.148438 Z M 3.367188 9.359375 C 1.5 9.359375 0.0195312 10.785156 0.0195312 12.542969 L 0.0195312 27.121094 C 0.0195312 29.347656 3.242188 29.347656 3.242188 27.121094 L 3.242188 15.601562 L 4.386719 15.601562 L 4.386719 48.441406 C 4.386719 49.445312 5.285156 50.28125 6.351562 50.28125 C 7.417969 50.28125 8.230469 49.445312 8.230469 48.441406 L 8.230469 30.359375 L 9.734375 30.359375 L 9.734375 48.441406 C 9.734375 49.445312 10.5625 50.28125 11.628906 50.28125 C 12.695312 50.28125 13.597656 49.445312 13.597656 48.441406 L 13.597656 15.601562 L 14.722656 15.601562 L 14.722656 27.121094 C 14.722656 29.347656 17.941406 29.347656 17.941406 27.121094 L 17.941406 12.542969 C 17.941406 10.785156 16.460938 9.359375 14.597656 9.359375 Z M 3.367188 9.359375 " fill-opacity="1" fill-rule="nonzero"/></g><g clip-path="url(#7cfafc9215)"><path fill="#e6faff" d="M 33.382812 0.148438 C 31.394531 0.148438 29.789062 1.773438 29.789062 3.761719 C 29.789062 5.75 31.394531 7.355469 33.382812 7.355469 C 35.371094 7.355469 36.996094 5.75 36.996094 3.761719 C 36.996094 1.773438 35.371094 0.148438 33.382812 0.148438 Z M 27.765625 9.359375 C 25.902344 9.359375 24.421875 10.785156 24.421875 12.542969 L 24.421875 27.121094 C 24.421875 29.347656 27.640625 29.347656 27.640625 27.121094 L 27.640625 15.601562 L 28.785156 15.601562 L 28.785156 48.441406 C 28.785156 49.445312 29.6875 50.28125 30.753906 50.28125 C 31.820312 50.28125 32.632812 49.445312 32.632812 48.441406 L 32.632812 30.359375 L 34.132812 30.359375 L 34.132812 48.441406 C 34.132812 49.445312 34.960938 50.28125 36.03125 50.28125 C 37.097656 50.28125 37.996094 49.445312 37.996094 48.441406 L 37.996094 15.601562 L 39.125 15.601562 L 39.125 27.121094 C 39.125 29.347656 42.34375 29.347656 42.34375 27.121094 L 42.34375 12.542969 C 42.34375 10.785156 40.863281 9.359375 39 9.359375 Z M 27.765625 9.359375 " fill-opacity="1" fill-rule="nonzero"/></g></svg>