<svg xmlns="http://www.w3.org/2000/svg" xmlns:xlink="http://www.w3.org/1999/xlink" width="50" zoomAndPan="magnify" viewBox="0 0 37.5 37.499999" height="50" preserveAspectRatio="xMidYMid meet" version="1.0"><path fill="#e6faff" d="M 28.164062 29.019531 L 8.496094 29.019531 C 6.695312 29.019531 5.234375 27.554688 5.234375 25.753906 L 5.234375 12.644531 C 5.234375 10.84375 6.695312 9.378906 8.496094 9.378906 L 13.554688 9.378906 L 14.179688 8.441406 C 14.496094 7.96875 15.109375 7.640625 15.675781 7.640625 L 20.984375 7.640625 C 21.542969 7.640625 22.171875 7.976562 22.480469 8.441406 L 23.105469 9.378906 L 28.164062 9.378906 C 29.960938 9.378906 31.425781 10.84375 31.425781 12.644531 L 31.425781 25.753906 C 31.425781 27.554688 29.960938 29.019531 28.164062 29.019531 Z M 18.328125 0 C 8.207031 0 0 8.207031 0 18.328125 C 0 28.453125 8.207031 36.660156 18.328125 36.660156 C 28.453125 36.660156 36.660156 28.453125 36.660156 18.328125 C 36.660156 8.207031 28.453125 0 18.328125 0 " fill-opacity="1" fill-rule="nonzero"/><path fill="#e6faff" d="M 18.328125 26.3125 C 14.40625 26.3125 11.214844 23.121094 11.214844 19.199219 C 11.214844 15.277344 14.40625 12.085938 18.328125 12.085938 C 22.253906 12.085938 25.445312 15.277344 25.445312 19.199219 C 25.445312 23.121094 22.253906 26.3125 18.328125 26.3125 Z M 9.851562 14.984375 C 9.085938 14.984375 8.46875 14.367188 8.46875 13.601562 C 8.46875 12.835938 9.085938 12.214844 9.851562 12.214844 C 10.617188 12.214844 11.238281 12.835938 11.238281 13.601562 C 11.238281 14.367188 10.617188 14.984375 9.851562 14.984375 Z M 28.164062 10.988281 L 22.242188 10.988281 L 21.140625 9.332031 C 21.113281 9.304688 21.019531 9.253906 20.972656 9.25 L 15.675781 9.25 C 15.640625 9.253906 15.542969 9.304688 15.515625 9.339844 L 14.417969 10.988281 L 8.496094 10.988281 C 7.585938 10.988281 6.84375 11.730469 6.84375 12.644531 L 6.84375 25.753906 C 6.84375 26.667969 7.585938 27.410156 8.496094 27.410156 L 28.164062 27.410156 C 29.074219 27.410156 29.816406 26.667969 29.816406 25.753906 L 29.816406 12.644531 C 29.816406 11.730469 29.074219 10.988281 28.164062 10.988281 " fill-opacity="1" fill-rule="nonzero"/><path fill="#e6faff" d="M 18.328125 22.835938 C 16.324219 22.835938 14.691406 21.207031 14.691406 19.199219 C 14.691406 17.195312 16.324219 15.5625 18.328125 15.5625 C 20.335938 15.5625 21.96875 17.195312 21.96875 19.199219 C 21.96875 21.207031 20.335938 22.835938 18.328125 22.835938 Z M 18.328125 13.695312 C 15.292969 13.695312 12.824219 16.164062 12.824219 19.199219 C 12.824219 22.234375 15.292969 24.703125 18.328125 24.703125 C 21.367188 24.703125 23.835938 22.234375 23.835938 19.199219 C 23.835938 16.164062 21.367188 13.695312 18.328125 13.695312 " fill-opacity="1" fill-rule="nonzero"/></svg>