<svg xmlns="http://www.w3.org/2000/svg" xmlns:xlink="http://www.w3.org/1999/xlink" width="50" zoomAndPan="magnify" viewBox="0 0 37.5 37.499999" height="50" preserveAspectRatio="xMidYMid meet" version="1.0"><defs><clipPath id="61a0591449"><path d="M 0 0 L 36.636719 0 L 36.636719 36.636719 L 0 36.636719 Z M 0 0 " clip-rule="nonzero"/></clipPath><clipPath id="bb9fe07a88"><path d="M 7.480469 7.480469 L 29.199219 7.480469 L 29.199219 29.199219 L 7.480469 29.199219 Z M 7.480469 7.480469 " clip-rule="nonzero"/></clipPath></defs><g clip-path="url(#61a0591449)"><path fill="#e6faff" d="M 36.660156 18.328125 C 36.660156 18.929688 36.628906 19.527344 36.570312 20.125 C 36.511719 20.722656 36.425781 21.316406 36.308594 21.90625 C 36.191406 22.496094 36.046875 23.078125 35.871094 23.652344 C 35.695312 24.226562 35.496094 24.789062 35.265625 25.34375 C 35.035156 25.898438 34.777344 26.441406 34.496094 26.972656 C 34.210938 27.5 33.90625 28.015625 33.570312 28.515625 C 33.238281 29.011719 32.878906 29.496094 32.5 29.957031 C 32.117188 30.421875 31.714844 30.867188 31.292969 31.292969 C 30.867188 31.714844 30.421875 32.117188 29.957031 32.5 C 29.496094 32.878906 29.011719 33.238281 28.515625 33.570312 C 28.015625 33.90625 27.5 34.210938 26.972656 34.496094 C 26.441406 34.777344 25.898438 35.035156 25.34375 35.265625 C 24.789062 35.496094 24.226562 35.695312 23.652344 35.871094 C 23.078125 36.046875 22.496094 36.191406 21.90625 36.308594 C 21.316406 36.425781 20.722656 36.511719 20.125 36.570312 C 19.527344 36.628906 18.929688 36.660156 18.328125 36.660156 C 17.730469 36.660156 17.128906 36.628906 16.535156 36.570312 C 15.9375 36.511719 15.34375 36.425781 14.753906 36.308594 C 14.164062 36.191406 13.582031 36.046875 13.007812 35.871094 C 12.433594 35.695312 11.871094 35.496094 11.316406 35.265625 C 10.761719 35.035156 10.21875 34.777344 9.6875 34.496094 C 9.160156 34.210938 8.644531 33.90625 8.144531 33.570312 C 7.648438 33.238281 7.164062 32.878906 6.703125 32.5 C 6.238281 32.117188 5.792969 31.714844 5.367188 31.292969 C 4.945312 30.867188 4.542969 30.421875 4.160156 29.957031 C 3.78125 29.496094 3.421875 29.011719 3.089844 28.515625 C 2.753906 28.015625 2.449219 27.5 2.164062 26.972656 C 1.882812 26.441406 1.625 25.898438 1.394531 25.34375 C 1.164062 24.789062 0.964844 24.226562 0.789062 23.652344 C 0.613281 23.078125 0.46875 22.496094 0.351562 21.90625 C 0.234375 21.316406 0.148438 20.722656 0.0898438 20.125 C 0.03125 19.527344 0 18.929688 0 18.328125 C 0 17.730469 0.03125 17.128906 0.0898438 16.535156 C 0.148438 15.9375 0.234375 15.34375 0.351562 14.753906 C 0.46875 14.164062 0.613281 13.582031 0.789062 13.007812 C 0.964844 12.433594 1.164062 11.871094 1.394531 11.316406 C 1.625 10.761719 1.882812 10.21875 2.164062 9.6875 C 2.449219 9.160156 2.753906 8.644531 3.089844 8.144531 C 3.421875 7.648438 3.78125 7.164062 4.160156 6.703125 C 4.542969 6.238281 4.945312 5.792969 5.367188 5.367188 C 5.792969 4.945312 6.238281 4.542969 6.703125 4.160156 C 7.164062 3.78125 7.648438 3.421875 8.144531 3.089844 C 8.644531 2.753906 9.160156 2.449219 9.6875 2.164062 C 10.21875 1.882812 10.761719 1.625 11.316406 1.394531 C 11.871094 1.164062 12.433594 0.964844 13.007812 0.789062 C 13.582031 0.613281 14.164062 0.46875 14.753906 0.351562 C 15.34375 0.234375 15.9375 0.148438 16.535156 0.0898438 C 17.128906 0.03125 17.730469 0 18.328125 0 C 18.929688 0 19.527344 0.03125 20.125 0.0898438 C 20.722656 0.148438 21.316406 0.234375 21.90625 0.351562 C 22.496094 0.46875 23.078125 0.613281 23.652344 0.789062 C 24.226562 0.964844 24.789062 1.164062 25.34375 1.394531 C 25.898438 1.625 26.441406 1.882812 26.972656 2.164062 C 27.5 2.449219 28.015625 2.753906 28.515625 3.089844 C 29.011719 3.421875 29.496094 3.78125 29.957031 4.160156 C 30.421875 4.542969 30.867188 4.945312 31.292969 5.367188 C 31.714844 5.792969 32.117188 6.238281 32.5 6.703125 C 32.878906 7.164062 33.238281 7.648438 33.570312 8.144531 C 33.90625 8.644531 34.210938 9.160156 34.496094 9.6875 C 34.777344 10.21875 35.035156 10.761719 35.265625 11.316406 C 35.496094 11.871094 35.695312 12.433594 35.871094 13.007812 C 36.046875 13.582031 36.191406 14.164062 36.308594 14.753906 C 36.425781 15.34375 36.511719 15.9375 36.570312 16.535156 C 36.628906 17.128906 36.660156 17.730469 36.660156 18.328125 Z M 36.660156 18.328125 " fill-opacity="1" fill-rule="nonzero"/></g><path fill="#061b37" d="M 12.539062 15.351562 L 14.144531 15.351562 C 14.230469 15.351562 14.300781 15.378906 14.363281 15.441406 C 14.421875 15.5 14.453125 15.574219 14.453125 15.65625 L 14.453125 24.488281 C 14.453125 24.570312 14.421875 24.644531 14.363281 24.703125 C 14.300781 24.765625 14.230469 24.792969 14.144531 24.792969 L 12.539062 24.792969 C 12.453125 24.792969 12.382812 24.765625 12.320312 24.703125 C 12.261719 24.644531 12.230469 24.570312 12.230469 24.488281 L 12.230469 15.65625 C 12.230469 15.574219 12.261719 15.5 12.320312 15.441406 C 12.382812 15.378906 12.453125 15.351562 12.539062 15.351562 Z M 12.539062 15.351562 " fill-opacity="1" fill-rule="nonzero"/><path fill="#061b37" d="M 14.632812 13.171875 C 14.632812 12.414062 14.089844 11.867188 13.339844 11.867188 C 12.59375 11.867188 12.03125 12.429688 12.03125 13.175781 C 12.03125 13.523438 12.15625 13.847656 12.386719 14.089844 C 12.625 14.335938 12.949219 14.46875 13.304688 14.46875 C 13.699219 14.46875 14.050781 14.332031 14.292969 14.078125 C 14.523438 13.839844 14.644531 13.523438 14.632812 13.175781 C 14.632812 13.175781 14.632812 13.175781 14.632812 13.171875 Z M 14.632812 13.171875 " fill-opacity="1" fill-rule="nonzero"/><path fill="#061b37" d="M 23.425781 15.972656 C 22.628906 15.257812 21.691406 15.148438 21.203125 15.148438 C 20.476562 15.148438 19.78125 15.34375 19.195312 15.710938 C 18.941406 15.871094 18.710938 16.0625 18.503906 16.285156 L 18.464844 15.636719 C 18.457031 15.558594 18.425781 15.488281 18.367188 15.433594 C 18.308594 15.375 18.238281 15.347656 18.15625 15.347656 L 16.734375 15.347656 C 16.644531 15.347656 16.570312 15.382812 16.507812 15.449219 C 16.449219 15.511719 16.421875 15.589844 16.425781 15.679688 C 16.476562 16.355469 16.5 17.0625 16.5 18.046875 L 16.5 24.488281 C 16.5 24.570312 16.527344 24.644531 16.589844 24.703125 C 16.648438 24.765625 16.722656 24.792969 16.808594 24.792969 L 18.414062 24.792969 C 18.496094 24.792969 18.570312 24.765625 18.628906 24.703125 C 18.691406 24.644531 18.71875 24.570312 18.71875 24.488281 L 18.71875 19.179688 C 18.71875 18.929688 18.753906 18.695312 18.8125 18.535156 C 18.8125 18.53125 18.8125 18.527344 18.816406 18.519531 C 19.03125 17.8125 19.691406 17.097656 20.675781 17.097656 C 21.28125 17.097656 21.71875 17.304688 22.007812 17.730469 C 22.269531 18.117188 22.410156 18.695312 22.410156 19.398438 L 22.410156 24.488281 C 22.410156 24.570312 22.4375 24.644531 22.5 24.703125 C 22.558594 24.765625 22.632812 24.792969 22.714844 24.792969 L 24.320312 24.792969 C 24.40625 24.792969 24.480469 24.765625 24.539062 24.703125 C 24.601562 24.644531 24.628906 24.570312 24.628906 24.488281 L 24.628906 19.214844 C 24.628906 18.464844 24.515625 17.796875 24.292969 17.234375 C 24.089844 16.730469 23.800781 16.304688 23.425781 15.972656 Z M 23.425781 15.972656 " fill-opacity="1" fill-rule="nonzero"/><g clip-path="url(#bb9fe07a88)"><path fill="#061b37" d="M 26.355469 7.480469 L 10.304688 7.480469 C 8.746094 7.480469 7.480469 8.746094 7.480469 10.304688 L 7.480469 26.355469 C 7.480469 27.914062 8.746094 29.179688 10.304688 29.179688 L 26.355469 29.179688 C 27.914062 29.179688 29.179688 27.914062 29.179688 26.355469 L 29.179688 10.304688 C 29.179688 8.746094 27.914062 7.480469 26.355469 7.480469 Z M 27.199219 10.441406 L 27.199219 26.21875 C 27.195312 26.488281 27.101562 26.71875 26.910156 26.910156 C 26.71875 27.101562 26.488281 27.195312 26.21875 27.199219 L 10.441406 27.199219 C 10.171875 27.195312 9.941406 27.101562 9.75 26.910156 C 9.558594 26.71875 9.464844 26.488281 9.464844 26.21875 L 9.464844 10.441406 C 9.464844 10.171875 9.558594 9.941406 9.75 9.75 C 9.941406 9.558594 10.171875 9.464844 10.441406 9.464844 L 26.21875 9.464844 C 26.488281 9.464844 26.71875 9.558594 26.910156 9.75 C 27.101562 9.941406 27.195312 10.171875 27.199219 10.441406 Z M 27.199219 10.441406 " fill-opacity="1" fill-rule="nonzero"/></g></svg>