<svg xmlns="http://www.w3.org/2000/svg" xmlns:xlink="http://www.w3.org/1999/xlink" width="308" zoomAndPan="magnify" viewBox="0 0 230.87999 231" height="308" preserveAspectRatio="xMidYMid meet" version="1.0"><defs><clipPath id="e31d950426"><path d="M 15 220 L 215 220 L 215 230.191406 L 15 230.191406 Z M 15 220 " clip-rule="nonzero"/></clipPath><clipPath id="950af6f0a5"><path d="M 103 0.0585938 L 128 0.0585938 L 128 32 L 103 32 Z M 103 0.0585938 " clip-rule="nonzero"/></clipPath><clipPath id="1e19865936"><path d="M 124 34 L 230.128906 34 L 230.128906 166 L 124 166 Z M 124 34 " clip-rule="nonzero"/></clipPath></defs><g clip-path="url(#e31d950426)"><path fill="#d1f6ff" d="M 205.492188 220.113281 L 24.765625 220.113281 C 21.210938 220.113281 18.03125 222.5 17.035156 225.917969 L 15.753906 230.332031 L 214.503906 230.332031 L 213.222656 225.917969 C 212.226562 222.5 209.046875 220.113281 205.492188 220.113281 Z M 205.492188 220.113281 " fill-opacity="1" fill-rule="nonzero"/></g><path fill="#d1f6ff" d="M 109.070312 35.191406 L 121.1875 35.191406 L 121.1875 41.539062 L 109.070312 41.539062 Z M 109.070312 35.191406 " fill-opacity="1" fill-rule="nonzero"/><g clip-path="url(#950af6f0a5)"><path fill="#d1f6ff" d="M 122.234375 31.417969 C 125.246094 28.109375 127.042969 22.984375 127.042969 17.503906 C 127.042969 7.886719 121.699219 0.0585938 115.128906 0.0585938 C 108.558594 0.0585938 103.210938 7.886719 103.210938 17.503906 C 103.210938 22.984375 105.007812 28.105469 108.019531 31.417969 Z M 122.234375 31.417969 " fill-opacity="1" fill-rule="nonzero"/></g><path fill="#d1f6ff" d="M 109.070312 45.3125 L 121.1875 45.3125 L 121.1875 191.316406 L 109.070312 191.316406 Z M 109.070312 45.3125 " fill-opacity="1" fill-rule="nonzero"/><path fill="#d1f6ff" d="M 65.046875 206.171875 C 61.546875 206.171875 58.414062 208.519531 57.4375 211.882812 L 56.136719 216.335938 L 174.121094 216.335938 L 172.820312 211.882812 C 171.84375 208.519531 168.710938 206.171875 165.210938 206.171875 Z M 65.046875 206.171875 " fill-opacity="1" fill-rule="nonzero"/><path fill="#d1f6ff" d="M 107.183594 195.09375 L 85.957031 195.09375 L 85.957031 202.398438 L 144.296875 202.398438 L 144.296875 195.09375 Z M 107.183594 195.09375 " fill-opacity="1" fill-rule="nonzero"/><path fill="#d1f6ff" d="M 80.597656 141.191406 L 71.402344 141.191406 L 51.351562 62.695312 C 53.003906 62.988281 54.660156 63.15625 56.285156 63.15625 C 63.953125 63.15625 69.855469 60.871094 75.570312 58.660156 C 80.105469 56.902344 84.390625 55.242188 88.957031 55.09375 C 95.683594 54.867188 101.789062 57.847656 105.292969 60 L 105.292969 44.722656 C 102.492188 43.773438 94.070312 41.265625 86.535156 42.554688 C 82.609375 43.226562 78.804688 45.269531 74.773438 47.433594 C 69.152344 50.453125 63.339844 53.570312 56.285156 53.570312 C 48.136719 53.570312 43.625 50.726562 41.40625 48.652344 C 40.640625 49.515625 39.746094 50.277344 38.714844 50.867188 C 37.8125 51.386719 36.660156 51.074219 36.140625 50.167969 C 35.621094 49.265625 35.933594 48.109375 36.839844 47.59375 C 39.015625 46.34375 40.371094 44.011719 40.371094 41.511719 C 40.371094 37.648438 37.226562 34.507812 33.367188 34.507812 C 29.507812 34.507812 26.367188 37.648438 26.367188 41.511719 C 26.367188 45.21875 28.523438 49.117188 31.929688 52.570312 L 9.292969 141.191406 L 0.09375 141.191406 C 1.570312 154.929688 19.0625 165.8125 40.347656 165.8125 C 61.632812 165.8125 79.121094 154.929688 80.597656 141.191406 Z M 67.484375 141.191406 L 42.234375 141.191406 L 42.234375 59.730469 C 43.832031 60.488281 45.480469 61.132812 47.167969 61.65625 Z M 38.460938 57.707031 L 38.460938 141.191406 L 13.210938 141.191406 L 35.128906 55.382812 C 36.183594 56.199219 37.285156 56.984375 38.460938 57.707031 Z M 38.460938 57.707031 " fill-opacity="1" fill-rule="nonzero"/><g clip-path="url(#1e19865936)"><path fill="#d1f6ff" d="M 220.964844 141.191406 L 198.328125 52.570312 C 201.730469 49.117188 203.890625 45.222656 203.890625 41.511719 C 203.890625 37.652344 200.75 34.511719 196.890625 34.511719 C 193.027344 34.511719 189.886719 37.652344 189.886719 41.511719 C 189.886719 44.015625 191.238281 46.347656 193.417969 47.59375 C 194.320312 48.109375 194.632812 49.265625 194.117188 50.171875 C 193.597656 51.074219 192.445312 51.386719 191.539062 50.871094 C 190.507812 50.28125 189.617188 49.515625 188.851562 48.652344 C 186.632812 50.726562 182.117188 53.574219 173.972656 53.574219 C 166.917969 53.574219 161.105469 50.453125 155.480469 47.433594 C 151.453125 45.273438 147.648438 43.226562 143.71875 42.554688 C 136.183594 41.265625 127.765625 43.777344 124.964844 44.726562 L 124.964844 60.007812 C 128.46875 57.863281 134.574219 54.890625 141.296875 55.09375 C 145.863281 55.242188 150.148438 56.902344 154.6875 58.660156 C 160.398438 60.871094 166.304688 63.15625 173.96875 63.15625 C 175.597656 63.15625 177.253906 62.988281 178.90625 62.695312 L 158.855469 141.191406 L 149.65625 141.191406 C 151.136719 154.929688 168.625 165.8125 189.910156 165.8125 C 211.195312 165.8125 228.683594 154.929688 230.160156 141.191406 Z M 195.128906 55.382812 L 217.046875 141.191406 L 191.796875 141.191406 L 191.796875 57.707031 C 192.972656 56.984375 194.074219 56.199219 195.128906 55.382812 Z M 188.023438 59.730469 L 188.023438 141.191406 L 162.773438 141.191406 L 183.089844 61.660156 C 184.773438 61.132812 186.425781 60.488281 188.023438 59.730469 Z M 188.023438 59.730469 " fill-opacity="1" fill-rule="nonzero"/></g></svg>