<svg xmlns="http://www.w3.org/2000/svg" xmlns:xlink="http://www.w3.org/1999/xlink" width="50" zoomAndPan="magnify" viewBox="0 0 37.5 37.499999" height="50" preserveAspectRatio="xMidYMid meet" version="1.0"><path fill="#e6faff" d="M 18.328125 0 C 8.203125 0 0 8.203125 0 18.328125 C 0 28.453125 8.203125 36.660156 18.328125 36.660156 C 28.453125 36.660156 36.660156 28.453125 36.660156 18.328125 C 36.644531 8.203125 28.4375 0 18.328125 0 Z M 28.882812 23.457031 C 28.675781 24.804688 27.503906 25.789062 26.136719 25.789062 L 10.507812 25.789062 C 9.140625 25.789062 7.964844 24.804688 7.761719 23.457031 C 7.570312 22.203125 7.378906 20.457031 7.363281 18.3125 C 7.378906 16.171875 7.554688 14.441406 7.761719 13.171875 C 7.964844 11.824219 9.140625 10.839844 10.507812 10.839844 L 26.136719 10.839844 C 27.503906 10.839844 28.675781 11.824219 28.882812 13.171875 C 29.074219 14.425781 29.265625 16.171875 29.28125 18.3125 C 29.265625 20.457031 29.074219 22.203125 28.882812 23.457031 Z M 28.882812 23.457031 " fill-opacity="1" fill-rule="nonzero"/><path fill="#e6faff" d="M 16.011719 15.347656 L 16.011719 21.296875 L 21.550781 18.328125 Z M 16.011719 15.347656 " fill-opacity="1" fill-rule="nonzero"/></svg>